<svg width="1600" height="760" viewBox="0 0 1600 760" fill="none" xmlns="http://www.w3.org/2000/svg" role="img" aria-labelledby="bannerTitle bannerDesc">
  <title id="bannerTitle">Doctoralia Scrapper project banner</title>
  <desc id="bannerDesc">Hero banner for the repository featuring the brand, quick capabilities, and a compact system map.</desc>
  <defs>
    <linearGradient id="bannerBg" x1="128" y1="74" x2="1436" y2="704" gradientUnits="userSpaceOnUse">
      <stop stop-color="#F8F4EC"/>
      <stop offset="0.58" stop-color="#F2ECE2"/>
      <stop offset="1" stop-color="#EAE5DA"/>
    </linearGradient>
    <radialGradient id="bannerBlobA" cx="0" cy="0" r="1" gradientUnits="userSpaceOnUse" gradientTransform="translate(1340 126) rotate(130.141) scale(340 272)">
      <stop stop-color="#F7C9B0"/>
      <stop offset="1" stop-color="#F7C9B0" stop-opacity="0"/>
    </radialGradient>
    <radialGradient id="bannerBlobB" cx="0" cy="0" r="1" gradientUnits="userSpaceOnUse" gradientTransform="translate(186 594) rotate(16.2241) scale(328 260)">
      <stop stop-color="#9ED7D0"/>
      <stop offset="1" stop-color="#9ED7D0" stop-opacity="0"/>
    </radialGradient>
    <linearGradient id="bannerMark" x1="150" y1="110" x2="336" y2="322" gradientUnits="userSpaceOnUse">
      <stop stop-color="#0F766E"/>
      <stop offset="0.6" stop-color="#155E75"/>
      <stop offset="1" stop-color="#102033"/>
    </linearGradient>
    <filter id="bannerCardShadow" x="780" y="146" width="684" height="470" filterUnits="userSpaceOnUse" color-interpolation-filters="sRGB">
      <feDropShadow dx="0" dy="24" stdDeviation="24" flood-color="#102033" flood-opacity="0.12"/>
    </filter>
  </defs>

  <rect width="1600" height="760" rx="36" fill="url(#bannerBg)"/>
  <rect x="34" y="34" width="1532" height="692" rx="28" stroke="#D5CDBF" stroke-width="2"/>
  <ellipse cx="1330" cy="136" rx="320" ry="250" fill="url(#bannerBlobA)"/>
  <ellipse cx="184" cy="606" rx="300" ry="234" fill="url(#bannerBlobB)"/>

  <g>
    <rect x="116" y="100" width="248" height="248" rx="64" fill="url(#bannerMark)"/>
    <rect x="116.8" y="100.8" width="246.4" height="246.4" rx="63.2" stroke="#FFF5E8" stroke-opacity="0.36" stroke-width="1.6"/>
    <circle cx="314" cy="148" r="22" fill="#E76F51"/>
    <circle cx="314" cy="148" r="8" fill="#FFF5E8" fill-opacity="0.7"/>
    <path d="M162 150C162 136.745 172.745 126 186 126H270C283.255 126 294 136.745 294 150V204C294 217.255 283.255 228 270 228H224L194 252V228H186C172.745 228 162 217.255 162 204V150Z" fill="#FFF6EC" fill-opacity="0.15"/>
    <path d="M162 150C162 136.745 172.745 126 186 126H270C283.255 126 294 136.745 294 150V204C294 217.255 283.255 228 270 228H224L194 252V228H186C172.745 228 162 217.255 162 204V150Z" stroke="#FFF5E8" stroke-opacity="0.38" stroke-width="2"/>
    <path d="M182 190H204L218 160L238 224L252 184L278 184" stroke="#FFF5E8" stroke-width="10" stroke-linecap="round" stroke-linejoin="round"/>
    <path d="M148 250C148 236.745 158.745 226 172 226H246C259.255 226 270 236.745 270 250V272C270 285.255 259.255 296 246 296H214L184 322V296H172C158.745 296 148 285.255 148 272V250Z" fill="#FFF5E8" fill-opacity="0.11"/>
    <path d="M148 250C148 236.745 158.745 226 172 226H246C259.255 226 270 236.745 270 250V272C270 285.255 259.255 296 246 296H214L184 322V296H172C158.745 296 148 285.255 148 272V250Z" stroke="#FFF5E8" stroke-opacity="0.28" stroke-width="2"/>
    <path d="M172 258H242" stroke="#FFF5E8" stroke-width="8" stroke-linecap="round"/>
    <path d="M172 278H218" stroke="#F6D184" stroke-width="8" stroke-linecap="round"/>
  </g>

  <g>
    <text x="430" y="160" fill="#102033" font-family="system-ui, -apple-system, BlinkMacSystemFont, 'Segoe UI', sans-serif" font-size="28" font-weight="700" letter-spacing="4">DOCTORALIA SCRAPPER</text>
    <text x="428" y="252" fill="#102033" font-family="Georgia, 'Times New Roman', serif" font-size="106" font-style="italic" font-weight="700">Review operations,</text>
    <text x="428" y="344" fill="#102033" font-family="Georgia, 'Times New Roman', serif" font-size="106" font-style="italic" font-weight="700">without the chaos.</text>
    <text x="430" y="414" fill="#465465" font-family="system-ui, -apple-system, BlinkMacSystemFont, 'Segoe UI', sans-serif" font-size="30" font-weight="500">
      Pipeline Docker-first para capturar reviews, gerar respostas sugeridas,
    </text>
    <text x="430" y="454" fill="#465465" font-family="system-ui, -apple-system, BlinkMacSystemFont, 'Segoe UI', sans-serif" font-size="30" font-weight="500">
      persistir historico, operar por dashboard e disparar agendas Telegram
    </text>
     <text x="430" y="490" fill="#465465" font-family="system-ui, -apple-system, BlinkMacSystemFont, 'Segoe UI', sans-serif" font-size="30" font-weight="500">
      com Redis.
    </text>
  </g>

  <g>
    <rect x="430" y="506" width="164" height="42" rx="21" fill="#E7F1EF"/>
    <text x="462" y="534" fill="#0F766E" font-family="system-ui, -apple-system, BlinkMacSystemFont, 'Segoe UI', sans-serif" font-size="20" font-weight="700">FastAPI + RQ</text>
    <rect x="608" y="506" width="152" height="42" rx="21" fill="#F5EAE3"/>
    <text x="638" y="534" fill="#D96D3C" font-family="system-ui, -apple-system, BlinkMacSystemFont, 'Segoe UI', sans-serif" font-size="20" font-weight="700">Dashboard</text>
    <rect x="774" y="506" width="170" height="42" rx="21" fill="#EEE8DA"/>
    <text x="806" y="534" fill="#7D6516" font-family="system-ui, -apple-system, BlinkMacSystemFont, 'Segoe UI', sans-serif" font-size="20" font-weight="700">Redis metrics</text>
    <rect x="430" y="566" width="172" height="42" rx="21" fill="#E8EEF6"/>
    <text x="463" y="594" fill="#155E75" font-family="system-ui, -apple-system, BlinkMacSystemFont, 'Segoe UI', sans-serif" font-size="20" font-weight="700">Telegram ops</text>
    <rect x="618" y="566" width="128" height="42" rx="21" fill="#F1ECE4"/>
    <text x="650" y="594" fill="#102033" font-family="system-ui, -apple-system, BlinkMacSystemFont, 'Segoe UI', sans-serif" font-size="20" font-weight="700">Selenium</text>
    <rect x="760" y="566" width="92" height="42" rx="21" fill="#EEF3F5"/>
    <text x="787" y="594" fill="#155E75" font-family="system-ui, -apple-system, BlinkMacSystemFont, 'Segoe UI', sans-serif" font-size="20" font-weight="700">n8n</text>
  </g>
  
  <text x="112" y="690" fill="#607080" font-family="system-ui, -apple-system, BlinkMacSystemFont, 'Segoe UI', sans-serif" font-size="20" font-weight="500">Built for operators who want one place to scrape, review, route, schedule and report.</text>
</svg>
