<svg width="920" height="240" fill="none" xmlns="http://www.w3.org/2000/svg" aria-labelledby="logoTitle logoDesc"><defs><linearGradient id="prefix__b" x1="36" y1="24" x2="184" y2="196" gradientUnits="userSpaceOnUse"><stop stop-color="#0F766E"/><stop offset=".55" stop-color="#155E75"/><stop offset="1" stop-color="#102033"/></linearGradient><linearGradient id="prefix__c" x1="70" y1="28" x2="168" y2="126" gradientUnits="userSpaceOnUse"><stop stop-color="#FFF5E8" stop-opacity=".92"/><stop offset="1" stop-color="#FFF5E8" stop-opacity="0"/></linearGradient><filter id="prefix__a" x="0" y="0" width="236" height="236" filterUnits="userSpaceOnUse" color-interpolation-filters="sRGB"/></defs><g filter="url(#prefix__a)"><rect x="18" y="20" width="184" height="184" rx="46" fill="url(#prefix__b)"/><rect x="18.8" y="20.8" width="182.4" height="182.4" rx="45.2" stroke="#F5EEE2" stroke-opacity=".4" stroke-width="1.6"/></g><circle cx="164" cy="56" r="18" fill="#E76F51"/><circle cx="164" cy="56" r="7" fill="#FFF5E8" fill-opacity=".68"/><path d="M54 58c0-11.046 8.954-20 20-20h62c11.046 0 20 8.954 20 20v44c0 11.046-8.954 20-20 20h-33.5L82 139v-17h-8c-11.046 0-20-8.954-20-20V58z" fill="#FFF6EC" fill-opacity=".18"/><path d="M54 58c0-11.046 8.954-20 20-20h62c11.046 0 20 8.954 20 20v44c0 11.046-8.954 20-20 20h-33.5L82 139v-17h-8c-11.046 0-20-8.954-20-20V58z" stroke="#FFF5E8" stroke-opacity=".36" stroke-width="2"/><path d="M69 86h16l10-19 14 45 12-30h18" stroke="#FFF5E8" stroke-width="8" stroke-linecap="round" stroke-linejoin="round"/><path d="M44 142c0-11.046 8.954-20 20-20h56c11.046 0 20 8.954 20 20v16c0 11.046-8.954 20-20 20H96l-20 16v-16H64c-11.046 0-20-8.954-20-20v-16z" fill="#FFF5E8" fill-opacity=".12"/><path d="M44 142c0-11.046 8.954-20 20-20h56c11.046 0 20 8.954 20 20v16c0 11.046-8.954 20-20 20H96l-20 16v-16H64c-11.046 0-20-8.954-20-20v-16z" stroke="#FFF5E8" stroke-opacity=".28" stroke-width="2"/><path d="M62 150h62" stroke="#FFF5E8" stroke-opacity=".92" stroke-width="6" stroke-linecap="round"/><path d="M62 165h42" stroke="#F9D799" stroke-width="6" stroke-linecap="round"/><rect x="34" y="34" width="152" height="152" rx="40" fill="url(#prefix__c)"/><g fill="#102033" font-weight="700"><text x="244" y="96" font-family="system-ui, -apple-system, BlinkMacSystemFont, 'Segoe UI', sans-serif" font-size="30" letter-spacing="2.6">DOCTORALIA</text><text x="244" y="150" font-family="Georgia, 'Times New Roman', serif" font-size="72" font-style="italic">Scrapper</text></g><text x="246" y="185" font-family="system-ui, -apple-system, BlinkMacSystemFont, 'Segoe UI', sans-serif" font-size="18" font-weight="500" letter-spacing=".8" fill="#4A5968">review intelligence / dashboard workspace / telegram workflows</text><rect x="246" y="34" width="122" height="28" rx="14" fill="#F0E9DC"/><text x="255" y="53" fill="#0F766E" font-family="system-ui, -apple-system, BlinkMacSystemFont, 'Segoe UI', sans-serif" font-size="14" font-weight="700" letter-spacing=".8">FASTAPI + RQ</text><rect x="378" y="34" width="126" height="28" rx="14" fill="#F3EAE6"/><text x="385" y="53" fill="#D96D3C" font-family="system-ui, -apple-system, BlinkMacSystemFont, 'Segoe UI', sans-serif" font-size="14" font-weight="700" letter-spacing=".8">DOCKER FIRST</text></svg>